<?xml version="1.0" encoding="UTF-8" standalone="no"?>
<!-- Created with Inkscape (http://www.inkscape.org/) -->

<svg
   xmlns:dc="http://purl.org/dc/elements/1.1/"
   xmlns:cc="http://creativecommons.org/ns#"
   xmlns:rdf="http://www.w3.org/1999/02/22-rdf-syntax-ns#"
   xmlns:svg="http://www.w3.org/2000/svg"
   xmlns="http://www.w3.org/2000/svg"
   version="1.1"
   width="880.52002"
   height="93.246658"
   id="svg2"
   xml:space="preserve"><metadata
     id="metadata8"><rdf:RDF><cc:Work
         rdf:about=""><dc:format>image/svg+xml</dc:format><dc:type
           rdf:resource="http://purl.org/dc/dcmitype/StillImage" /><dc:title></dc:title></cc:Work></rdf:RDF></metadata><defs
     id="defs6"><clipPath
       id="clipPath16"><path
         d="m 0,583.823 1201.471,0 L 1201.471,0 0,0 0,583.823 z"
         id="path18" /></clipPath></defs><g
     transform="matrix(1.25,0,0,-1.25,-322.85875,405.42762)"
     id="g10"><g
       id="g12"
       style="fill:#f9f9f9"><g
         clip-path="url(#clipPath16)"
         id="g14"
         style="fill:#f9f9f9"><g
           transform="translate(331.1925,268.3362)"
           id="g20"
           style="fill:#f9f9f9"><path
             d="m 0,0 0,47.258 c 0,1.574 1.477,2.362 4.43,2.362 l 2.585,0 c 2.953,0 4.43,-0.788 4.43,-2.362 l 0,-19.789 0.295,-0.074 12.849,20.823 c 0.541,0.934 2.017,1.402 4.43,1.402 l 3.471,0 c 2.756,0 4.135,-0.369 4.135,-1.107 0,-0.443 -0.198,-0.96 -0.591,-1.551 L 21.783,25.105 37.954,0.295 c 0.393,-0.591 0.59,-1.107 0.59,-1.551 0,-0.738 -1.378,-1.107 -4.134,-1.107 l -4.283,0 c -2.462,0 -3.963,0.467 -4.504,1.403 L 11.74,21.487 11.445,21.413 11.445,0 c 0,-1.576 -1.477,-2.363 -4.43,-2.363 l -2.585,0 C 1.477,-2.363 0,-1.576 0,0"
             id="path22"
             style="fill:#f9f9f9;fill-opacity:1;fill-rule:nonzero;stroke:none" /></g><g
           transform="translate(382.8058,285.43)"
           id="g24"
           style="fill:#f9f9f9"><path
             d="m 0,0 c 0,-7.508 2.277,-11.261 6.83,-11.261 4.553,0 6.83,3.753 6.83,11.261 0,7.506 -2.277,11.261 -6.83,11.261 C 2.277,11.261 0,7.506 0,0 m -6.498,-14.769 c -3.053,3.421 -4.578,8.356 -4.578,14.806 0,6.448 1.525,11.371 4.578,14.768 3.053,3.397 7.506,5.095 13.365,5.095 5.858,0 10.301,-1.698 13.328,-5.095 3.028,-3.397 4.541,-8.32 4.541,-14.768 0,-6.45 -1.513,-11.385 -4.541,-14.806 -3.027,-3.421 -7.47,-5.131 -13.328,-5.131 -5.859,0 -10.312,1.71 -13.365,5.131"
             id="path26"
             style="fill:#f9f9f9;fill-opacity:1;fill-rule:nonzero;stroke:none" /></g><g
           transform="translate(430.8014,274.4641)"
           id="g28"
           style="fill:#f9f9f9"><path
             d="m 0,0 c 2.363,0 4.381,1.452 6.056,4.357 l 0,16.466 C 4.381,21.758 2.658,22.227 0.887,22.227 -3.691,22.227 -5.98,18.521 -5.98,11.113 -5.98,3.704 -3.987,0 0,0 m -3.249,-8.935 c -4.086,0 -7.409,1.76 -9.968,5.281 -2.561,3.518 -3.84,8.368 -3.84,14.546 0,6.177 1.366,11.05 4.098,14.621 2.732,3.568 6.56,5.353 11.482,5.353 2.905,0 5.415,-0.764 7.533,-2.289 l 0,16.393 c 0,1.574 1.476,2.362 4.429,2.362 l 2.068,0 c 2.954,0 4.43,-0.788 4.43,-2.362 l 0,-40.318 c 0,-3.052 0.148,-5.611 0.444,-7.679 l 0.443,-3.028 c 0,-0.788 -0.997,-1.379 -2.991,-1.771 -1.993,-0.396 -3.483,-0.591 -4.467,-0.591 -0.985,0 -1.638,0.098 -1.957,0.295 -0.321,0.196 -0.579,0.517 -0.775,0.96 -0.198,0.443 -0.345,0.812 -0.444,1.107 -0.098,0.296 -0.21,0.776 -0.332,1.441 -0.123,0.664 -0.21,1.07 -0.258,1.218 C 5.76,-5.021 4.442,-6.35 2.695,-7.384 0.947,-8.417 -1.033,-8.935 -3.249,-8.935"
             id="path30"
             style="fill:#f9f9f9;fill-opacity:1;fill-rule:nonzero;stroke:none" /></g><g
           transform="translate(456.7184,268.3362)"
           id="g32"
           style="fill:#f9f9f9"><path
             d="m 0,0 0,34.188 c 0,1.575 1.477,2.363 4.431,2.363 l 2.067,0 c 2.954,0 4.431,-0.788 4.431,-2.363 L 10.929,0 c 0,-1.576 -1.477,-2.363 -4.431,-2.363 l -2.067,0 C 1.477,-2.363 0,-1.576 0,0 M 4.431,42.753 C 1.477,42.753 0,43.54 0,45.116 l 0,5.982 c 0,1.574 1.477,2.362 4.431,2.362 l 2.067,0 c 2.954,0 4.431,-0.788 4.431,-2.362 l 0,-5.982 c 0,-1.576 -1.477,-2.363 -4.431,-2.363 l -2.067,0 z"
             id="path34"
             style="fill:#f9f9f9;fill-opacity:1;fill-rule:nonzero;stroke:none" /></g><g
           transform="translate(476.5084,268.3362)"
           id="g36"
           style="fill:#f9f9f9"><path
             d="m 0,0 0,23.407 c 0,3.693 -0.147,6.277 -0.443,7.753 -0.295,1.477 -0.443,2.363 -0.443,2.658 0,0.787 0.996,1.378 2.99,1.773 1.994,0.393 3.483,0.591 4.468,0.591 0.984,0 1.636,-0.1 1.956,-0.296 0.321,-0.198 0.578,-0.505 0.776,-0.923 0.196,-0.419 0.343,-0.764 0.443,-1.033 0.098,-0.272 0.209,-0.728 0.332,-1.367 0.122,-0.64 0.209,-1.034 0.259,-1.181 1.182,1.575 2.756,2.904 4.725,3.987 1.969,1.082 4.062,1.625 6.277,1.625 3.692,0 6.424,-0.973 8.196,-2.917 1.773,-1.945 2.658,-4.96 2.658,-9.046 L 32.194,0 c 0,-1.576 -1.476,-2.363 -4.43,-2.363 l -2.068,0 c -2.953,0 -4.43,0.787 -4.43,2.363 l 0,23.407 c 0,3.052 -1.477,4.578 -4.43,4.578 -2.463,0 -4.431,-1.428 -5.907,-4.283 L 10.929,0 c 0,-1.576 -1.478,-2.363 -4.431,-2.363 l -2.067,0 C 1.477,-2.363 0,-1.576 0,0"
             id="path38"
             style="fill:#f9f9f9;fill-opacity:1;fill-rule:nonzero;stroke:none" /></g><g
           transform="translate(528.7867,288.3098)"
           id="g40"
           style="fill:#f9f9f9"><path
             d="m 0,0 c 1.033,-0.862 2.362,-1.292 3.987,-1.292 1.624,0 2.953,0.43 3.988,1.292 1.033,0.86 1.55,2.165 1.55,3.913 0,1.747 -0.517,3.052 -1.55,3.914 C 6.94,8.688 5.611,9.119 3.987,9.119 2.362,9.119 1.033,8.688 0,7.827 -1.034,6.965 -1.551,5.66 -1.551,3.913 -1.551,2.165 -1.034,0.86 0,0 m -3.323,-25.881 c 0,-2.216 2.558,-3.323 7.679,-3.323 5.12,0 7.679,1.207 7.679,3.618 0,1.133 -0.824,1.957 -2.473,2.474 -1.65,0.516 -4.615,0.923 -8.898,1.218 -2.658,-0.934 -3.987,-2.263 -3.987,-3.987 m -10.633,-1.772 c 0,3.987 2.239,6.841 6.719,8.565 l 0.074,0.295 c -2.117,1.083 -3.175,2.904 -3.175,5.465 0,2.558 1.477,4.626 4.43,6.202 -3.988,2.216 -5.981,5.723 -5.981,10.522 0,4.8 1.464,8.271 4.394,10.412 2.928,2.141 6.756,3.213 11.482,3.213 1.92,0 3.814,-0.198 5.686,-0.591 l 11.888,0 c 1.477,0 2.215,-1.232 2.215,-3.693 l 0,-1.255 c 0,-2.314 -0.603,-3.47 -1.809,-3.47 -1.206,0 -2.252,0.097 -3.138,0.295 L 18.682,8.012 c 0.786,-1.034 1.18,-2.413 1.18,-4.135 0,-4.383 -1.39,-7.655 -4.172,-9.821 -2.781,-2.167 -6.412,-3.249 -10.891,-3.249 -3.003,0 -4.504,-0.664 -4.504,-1.994 0,-1.428 1.944,-2.314 5.833,-2.659 3.889,-0.344 7.482,-1.157 10.781,-2.436 1.624,-0.64 2.99,-1.736 4.098,-3.285 1.108,-1.551 1.662,-3.458 1.662,-5.723 0,-3.791 -1.748,-6.831 -5.243,-9.12 -3.496,-2.289 -8.098,-3.434 -13.808,-3.434 -11.717,0 -17.574,3.398 -17.574,10.191"
             id="path42"
             style="fill:#f9f9f9;fill-opacity:1;fill-rule:nonzero;stroke:none" /></g><path
           d="m 307.994,305.028 -49.707,0 0,12.888 49.707,0 0,-12.888 z"
           id="path44"
           style="fill:#f9f9f9;fill-opacity:1;fill-rule:nonzero;stroke:none" /><path
           d="m 296.387,285.574 -38.1,0 0,12.888 38.1,0 0,-12.888 z"
           id="path46"
           style="fill:#f9f9f9;fill-opacity:1;fill-rule:nonzero;stroke:none" /><path
           d="m 307.994,266.121 -49.707,0 0,12.888 49.707,0 0,-12.888 z"
           id="path48"
           style="fill:#f9f9f9;fill-opacity:1;fill-rule:nonzero;stroke:none" /></g></g><text
       transform="matrix(1,0,0,-1,576.1768,265.7783)"
       id="text50"
       style="fill:#f9f9f9"><tspan
         x="0 54.881958 97.816299 118.24287 155.62735 197.17422 225.38602 257.22064 277.64722 304.00903"
         y="0"
         id="tspan52"
         style="font-size:77.08139801px;font-variant:normal;font-weight:normal;font-stretch:normal;writing-mode:lr-tb;fill:#f9f9f9;fill-opacity:1;fill-rule:nonzero;stroke:none;font-family:Asap;-inkscape-font-specification:Asap-Regular">University</tspan></text>
</g></svg>