<?xml version="1.0" encoding="utf-8"?>
<!-- Generator: Adobe Illustrator 18.1.0, SVG Export Plug-In . SVG Version: 6.00 Build 0)  -->
<!DOCTYPE svg PUBLIC "-//W3C//DTD SVG 1.1//EN" "http://www.w3.org/Graphics/SVG/1.1/DTD/svg11.dtd">
<svg version="1.1" id="Layer_1" xmlns="http://www.w3.org/2000/svg" xmlns:xlink="http://www.w3.org/1999/xlink" x="0px" y="0px"
	 viewBox="0 0 221 50" enable-background="new 0 0 221 50" xml:space="preserve">
<g>
	<path fill="#FFFFFF" d="M36,31.7V17.9c0-0.5,0.4-0.7,1.3-0.7H38c0.9,0,1.3,0.2,1.3,0.7v5.8l0.1,0l3.8-6.1c0.2-0.3,0.6-0.4,1.3-0.4
		h1c0.8,0,1.2,0.1,1.2,0.3c0,0.1-0.1,0.3-0.2,0.5l-4.2,6.4l4.7,7.2c0.1,0.2,0.2,0.3,0.2,0.5c0,0.2-0.4,0.3-1.2,0.3h-1.3
		c-0.7,0-1.2-0.1-1.3-0.4l-4.1-6.6l-0.1,0v6.3c0,0.5-0.4,0.7-1.3,0.7h-0.8C36.4,32.4,36,32.2,36,31.7z"/>
	<path fill="#FFFFFF" d="M49.1,31c-0.9-1-1.3-2.4-1.3-4.3c0-1.9,0.4-3.3,1.3-4.3c0.9-1,2.2-1.5,3.9-1.5c1.7,0,3,0.5,3.9,1.5
		c0.9,1,1.3,2.4,1.3,4.3c0,1.9-0.4,3.3-1.3,4.3c-0.9,1-2.2,1.5-3.9,1.5C51.3,32.5,50,32,49.1,31z M51,26.7c0,2.2,0.7,3.3,2,3.3
		s2-1.1,2-3.3c0-2.2-0.7-3.3-2-3.3S51,24.5,51,26.7z"/>
	<path fill="#FFFFFF" d="M64.1,32.5c-1.2,0-2.2-0.5-2.9-1.5c-0.7-1-1.1-2.4-1.1-4.3s0.4-3.2,1.2-4.3c0.8-1,1.9-1.6,3.4-1.6
		c0.8,0,1.6,0.2,2.2,0.7v-4.8c0-0.5,0.4-0.7,1.3-0.7h0.6c0.9,0,1.3,0.2,1.3,0.7v11.8c0,0.9,0,1.6,0.1,2.2l0.1,0.9
		c0,0.2-0.3,0.4-0.9,0.5c-0.6,0.1-1,0.2-1.3,0.2c-0.3,0-0.5,0-0.6-0.1c-0.1-0.1-0.2-0.2-0.2-0.3c-0.1-0.1-0.1-0.2-0.1-0.3
		c0-0.1-0.1-0.2-0.1-0.4c0-0.2-0.1-0.3-0.1-0.4c-0.3,0.5-0.6,0.9-1.2,1.2C65.3,32.4,64.8,32.5,64.1,32.5z M65.1,29.9
		c0.7,0,1.3-0.4,1.8-1.3v-4.8c-0.5-0.3-1-0.4-1.5-0.4c-1.3,0-2,1.1-2,3.2C63.3,28.8,63.9,29.9,65.1,29.9z"/>
	<path fill="#FFFFFF" d="M73.9,19.2c-0.9,0-1.3-0.2-1.3-0.7v-1.7c0-0.5,0.4-0.7,1.3-0.7h0.6c0.9,0,1.3,0.2,1.3,0.7v1.7
		c0,0.5-0.4,0.7-1.3,0.7H73.9z M72.6,31.7v-10c0-0.5,0.4-0.7,1.3-0.7h0.6c0.9,0,1.3,0.2,1.3,0.7v10c0,0.5-0.4,0.7-1.3,0.7h-0.6
		C73.1,32.4,72.6,32.2,72.6,31.7z"/>
	<path fill="#FFFFFF" d="M78.4,31.7v-6.8c0-1.1,0-1.8-0.1-2.3c-0.1-0.4-0.1-0.7-0.1-0.8c0-0.2,0.3-0.4,0.9-0.5
		c0.6-0.1,1-0.2,1.3-0.2c0.3,0,0.5,0,0.6,0.1c0.1,0.1,0.2,0.1,0.2,0.3c0.1,0.1,0.1,0.2,0.1,0.3c0,0.1,0.1,0.2,0.1,0.4
		c0,0.2,0.1,0.3,0.1,0.3c0.3-0.5,0.8-0.8,1.4-1.2c0.6-0.3,1.2-0.5,1.8-0.5c1.1,0,1.9,0.3,2.4,0.9c0.5,0.6,0.8,1.4,0.8,2.6v7.3
		c0,0.5-0.4,0.7-1.3,0.7h-0.6c-0.9,0-1.3-0.2-1.3-0.7v-6.8c0-0.9-0.4-1.3-1.3-1.3c-0.7,0-1.3,0.4-1.7,1.3v6.9c0,0.5-0.4,0.7-1.3,0.7
		h-0.6C78.8,32.4,78.4,32.2,78.4,31.7z"/>
	<path fill="#FFFFFF" d="M89.6,33.9c0-1.2,0.7-2,2-2.5l0-0.1c-0.6-0.3-0.9-0.8-0.9-1.6c0-0.7,0.4-1.4,1.3-1.8
		c-1.2-0.6-1.7-1.7-1.7-3.1c0-1.4,0.4-2.4,1.3-3c0.9-0.6,2-0.9,3.4-0.9c0.6,0,1.1,0.1,1.7,0.2h3.5c0.4,0,0.6,0.4,0.6,1.1v0.4
		c0,0.7-0.2,1-0.5,1c-0.4,0-0.7,0-0.9-0.1l0,0.1c0.2,0.3,0.3,0.7,0.3,1.2c0,1.3-0.4,2.2-1.2,2.9c-0.8,0.6-1.9,0.9-3.2,0.9
		c-0.9,0-1.3,0.2-1.3,0.6c0,0.4,0.6,0.7,1.7,0.8c1.1,0.1,2.2,0.3,3.2,0.7c0.5,0.2,0.9,0.5,1.2,1c0.3,0.5,0.5,1,0.5,1.7
		c0,1.1-0.5,2-1.5,2.7c-1,0.7-2.4,1-4,1C91.3,36.9,89.6,35.9,89.6,33.9z M92.7,33.4c0,0.6,0.7,1,2.2,1c1.5,0,2.2-0.4,2.2-1.1
		c0-0.3-0.2-0.6-0.7-0.7c-0.5-0.2-1.3-0.3-2.6-0.4C93.1,32.5,92.7,32.9,92.7,33.4z M93.7,25.9c0.3,0.3,0.7,0.4,1.2,0.4
		c0.5,0,0.9-0.1,1.2-0.4c0.3-0.3,0.5-0.6,0.5-1.1c0-0.5-0.2-0.9-0.5-1.1c-0.3-0.3-0.7-0.4-1.2-0.4c-0.5,0-0.9,0.1-1.2,0.4
		c-0.3,0.3-0.5,0.6-0.5,1.1C93.2,25.2,93.4,25.6,93.7,25.9z"/>
</g>
<g>
	<rect x="14.6" y="17.2" fill="#FFFFFF" width="14.5" height="3.8"/>
	<rect x="14.6" y="22.9" fill="#FFFFFF" width="11.1" height="3.8"/>
	<rect x="14.6" y="28.6" fill="#FFFFFF" width="14.5" height="3.8"/>
</g>
<text transform="matrix(1 0 0 1 107.5363 32.441)" fill="#BCBEC0" font-family="'Asap-Regular'" font-size="22.5236">University</text>
</svg>
